<svg xmlns="http://www.w3.org/2000/svg" viewBox="0 0 300 80.44"><defs><style>.cls-1{fill:#ff7900;}</style></defs><title>om</title><g id="Layer_2" data-name="Layer 2"><g id="Layer_1-2" data-name="Layer 1"><path d="M63,8.09H17a9.34,9.34,0,1,0,0,18.67H40.47L2.73,64.5A9.34,9.34,0,0,0,15.94,77.7L53.68,40V63.41a9.34,9.34,0,0,0,18.67,0v-46A9.34,9.34,0,0,0,63,8.09"/><path class="cls-1" d="M89.88,72.35h46a9.34,9.34,0,1,0,0-18.67H112.42l37.74-37.74A9.34,9.34,0,0,0,137,2.73L99.22,40.47V17a9.34,9.34,0,1,0-18.67,0V63a9.34,9.34,0,0,0,9.33,9.34"/><path d="M186.24,31.17c5.26,0,7.24-4.52,7.24-9,0-4.71-2-9.23-7.24-9.23S179,17.45,179,22.16c0,4.49,2,9,7.23,9m0-23.22c8.24,0,13.09,6.22,13.09,14.21,0,7.76-4.85,14-13.09,14s-13.09-6.22-13.09-14c0-8,4.85-14.21,13.09-14.21m15.1,8.59h4.9v3.64h.07a6.63,6.63,0,0,1,6-4.17,3.46,3.46,0,0,1,1.12.19v5a9.24,9.24,0,0,0-1.85-.19c-3.77,0-5.08,2.85-5.08,6.3v8.83h-5.15Zm27.84,9.74c-1,.77-3,.81-4.71,1.11s-3.36.88-3.36,2.8,1.64,2.44,3.47,2.44c4.44,0,4.6-3.25,4.6-4.39Zm-13.1-3.88c.32-4.91,5.07-6.39,9.7-6.39,4.12,0,9.07.85,9.07,5.43v9.94a9.16,9.16,0,0,0,.72,4.25h-5.75a7.37,7.37,0,0,1-.4-1.85,10,10,0,0,1-6.95,2.36c-3.92,0-7-1.81-7-5.72,0-4.33,3.51-5.36,7-5.8s6.71-.37,6.71-2.52-1.68-2.58-3.68-2.58c-2.15,0-3.55.81-3.75,2.88Zm21.5-5.86h5v2.73h.11a6.85,6.85,0,0,1,5.9-3.26c5.64,0,7.06,3.22,7.06,8.07V36.14h-5.3V25.07c0-3.22-.93-4.81-3.4-4.81-2.88,0-4.11,1.63-4.11,5.61V36.14h-5.31Zm35,9.78c0-3.25-1.13-6.16-4.75-6.16-3.14,0-4.51,2.71-4.51,5.7s1.1,6,4.51,6C271,31.87,272.55,29.19,272.55,26.32Zm5.3,9c0,3.29-1.18,8.88-10.52,8.88-4,0-8.67-1.87-8.94-6.44h5.53c.51,2.05,2.2,2.75,4.16,2.75,3.1,0,4.51-2.09,4.47-5V32.91h-.07A6.88,6.88,0,0,1,266.39,36c-6.08,0-8.67-4.58-8.67-10.09,0-5.19,3-9.92,8.71-9.92,2.67,0,4.71.89,6.05,3.22h.07V16.55h5.3ZM294.43,24C293.92,21.36,292.71,20,290,20a4.25,4.25,0,0,0-4.6,4.06Zm-9,3.33c.15,3.32,1.87,4.84,5,4.84,2.22,0,4-1.29,4.37-2.48h4.88c-1.56,4.51-4.88,6.43-9.45,6.43-6.36,0-10.3-4.14-10.3-10,0-5.72,4.17-10.08,10.3-10.08,6.87,0,10.19,5.47,9.8,11.34Zm-99,36.23h.08l6.2-19.38h8.68V72.38h-5.77v-20h-.08l-6.87,20h-4.75L177,52.6h-.08V72.38h-5.77V44.2h8.68Zm29,4.85c3.65,0,4.74-3.07,4.74-6.09s-1.09-6.14-4.74-6.14-4.71,3.07-4.71,6.14,1.09,6.09,4.71,6.09m0-16.18c6.13,0,10.08,4,10.08,10.09s-3.95,10-10.08,10-10-4-10-10,3.95-10.09,10-10.09m12.1.53h5v2.73h.11a6.87,6.87,0,0,1,5.91-3.26c5.64,0,7.06,3.22,7.06,8.08v12h-5.31V61.31c0-3.22-.93-4.81-3.4-4.81-2.88,0-4.11,1.63-4.11,5.61V72.38h-5.3Zm34.69,7.49c-.51-2.66-1.72-4.07-4.41-4.07a4.27,4.27,0,0,0-4.61,4.07Zm-9,3.32c.16,3.33,1.88,4.84,5,4.84,2.23,0,4-1.29,4.37-2.47h4.88c-1.56,4.5-4.88,6.42-9.44,6.42-6.37,0-10.31-4.13-10.31-10,0-5.72,4.18-10.08,10.31-10.08,6.87,0,10.18,5.47,9.79,11.34ZM279.73,74c-1.18,3.11-3,4.38-6.75,4.38-1.1,0-2.2-.07-3.3-.18V73.86a29.62,29.62,0,0,0,3.15.18c1.86-.18,2.46-2.09,1.86-3.63l-6.9-18.16h5.76L278,65.51h.07l4.29-13.26h5.57Z"/></g></g></svg>