<svg xmlns="http://www.w3.org/2000/svg" xmlns:xlink="http://www.w3.org/1999/xlink" viewBox="0 0 70.96 48.88"><defs><style>.cls-1{fill:none;}.cls-2{clip-path:url(#clip-path);}.cls-3{clip-path:url(#clip-path-2);}</style><clipPath id="clip-path" transform="translate(0 0)"><rect class="cls-1" width="70.96" height="48.88"/></clipPath><clipPath id="clip-path-2" transform="translate(0 0)"><rect class="cls-1" width="70.96" height="48.88"/></clipPath></defs><title>belefirst_logo</title><g id="Layer_2" data-name="Layer 2"><g id="Layer_1-2" data-name="Layer 1"><g class="cls-2"><g class="cls-3"><path d="M66.22,5.48a1.1,1.1,0,0,1-.56.74,5.7,5.7,0,0,1-4.43-.4A1.34,1.34,0,0,1,60.8,5c0-.35-.42-.83.05-1.07.16-.09.56.32.87.44.7.28,1.41.53,2.12.77a.3.3,0,0,0,.3-.06c0-.1,0-.3,0-.35a8.82,8.82,0,0,0-1-.82c-.45-.3-1-.52-1.42-.83a1.46,1.46,0,0,1-.65-1.54A1.36,1.36,0,0,1,62.27.43,12,12,0,0,1,63.74.3a7.35,7.35,0,0,0,1.48,0c.35,0,.5.07.55.4.07.64.17,1.28.23,1.92a.57.57,0,0,1-.21.45.57.57,0,0,1-.5-.13c-.34-.27-.62-.6-1-.88a1.26,1.26,0,0,0-1.5-.1,2.78,2.78,0,0,0-.33.27c.11.09.2.24.32.28a8.2,8.2,0,0,1,2.73,1.72c.41.33.82.72.67,1.3" transform="translate(0 0)"/><path d="M69.81,1.88c-.84,0-.88,0-.94.81s-.05,1.93-.09,2.9c0,.27,0,.64-.31.68a4.94,4.94,0,0,1-1.27-.08s-.12-.31-.09-.44c.12-.47.31-.91.41-1.37.16-.76.27-1.54.41-2.3,0-.25,0-.36-.29-.43a.6.6,0,0,1-.32-1,.44.44,0,0,1,.33-.14A6.8,6.8,0,0,0,70.32.07c.51-.18.69,0,.63.51,0,.25-.06.49-.07.74,0,.42-.22.6-.64.56a3.09,3.09,0,0,0-.43,0" transform="translate(0 0)"/><path d="M25.77,26.44a.8.8,0,0,1-.13-1.37c5-3.53,6.7-8.67,1.29-13.13-6.06-5-13.15-6-20.64-3.64a8.6,8.6,0,0,0-5,3.79C.15,14,1,16.3,2.9,16.06c2.29-.29,2.36,1.42,2.39,2.47a10.79,10.79,0,0,1-1,5.24C3.62,25.13,2,24.37.66,25c-2,.9,1.2,5.6,1.95,5.82,2.57.76,3,.3,3.75,1.61a10.82,10.82,0,0,1,1.33,5.16c0,1,.1,2.75-2.2,2.63-1.93-.11-2.61,2.22-1.32,4.07a8.64,8.64,0,0,0,5.24,3.44c7.63,1.8,14.63.35,20.34-5.07s2.71-13.08-4-16.2M17,16.11A10.56,10.56,0,0,1,20.82,18c1.74,1.14,1.57,2.29-.39,2.95-2.3.77-4.66,1.37-7,2.08-1.38.41-1.91,0-1.64-1.46a7,7,0,0,0-.08-1.82c-.37-5.2-.14-5.38,5.24-3.66M23.22,37a10.62,10.62,0,0,1-3.72,2.17C14.26,41.26,14,41.1,14,35.88a7.37,7.37,0,0,0,0-1.82c-.37-1.45.13-1.89,1.54-1.56,2.37.54,4.77,1,7.12,1.59,2,.52,2.25,1.65.59,2.91" transform="translate(0 0)"/><path d="M57.14,39.58c0-8.72.65-17.37,2.86-25.85.64-2.47,0-3.77-2.63-5-4.15-1.92-17,3.56-19.89,6.32C37.26,16.51,37,18,36.8,19.4c-.53,3.39-1.3,3.36,2,4,2,.4,4.1.85,6.13,1.32a3.16,3.16,0,0,0,3.64-1.92c1.41-3.44,5.33-7.9,5.33-6.29a99.64,99.64,0,0,1-1.8,13c-1.49,5.09-2.92,10.2-4.39,15.29-1,3.39-.42,4.16,3.06,4.08,6.31-.16,6.31-.16,6.4-6.56,0-.91,0-1.83,0-2.74" transform="translate(0 0)"/></g></g></g></g></svg>