<svg xmlns="http://www.w3.org/2000/svg" viewBox="0 0 30 30"><defs><style>.cls-1{fill:#292d32;isolation:isolate;}</style></defs><title>facebook</title><g id="Layer_2" data-name="Layer 2"><g id="Layer_1-2" data-name="Layer 1"><path class="cls-1" d="M21.28,0H8.72C3.26,0,0,3.26,0,8.72V21.28C0,26.74,3.26,30,8.72,30h5l-.18-10.81-2.55,0a.44.44,0,0,1-.45-.45l0-2.85a.44.44,0,0,1,.45-.45l2.55-.05-.07-4.88A4.48,4.48,0,0,1,17.81,6l4.06-.06a.44.44,0,0,1,.45.45l.06,3.6a.45.45,0,0,1-.45.45l-3.6.06a.43.43,0,0,0-.46.43L18,15.35l3.95-.06a.46.46,0,0,1,.45.53l-.53,2.86a.48.48,0,0,1-.43.38L18,19.12,18.19,30h3.09C26.74,30,30,26.74,30,21.28V8.72C30,3.26,26.74,0,21.28,0Z"/></g></g></svg>