<svg xmlns="http://www.w3.org/2000/svg" xmlns:xlink="http://www.w3.org/1999/xlink" viewBox="0 0 85.04 58.58"><defs><style>.cls-1{fill:none;}.cls-2{clip-path:url(#clip-path);}.cls-3{fill:#fff;}</style><clipPath id="clip-path" transform="translate(0)"><rect class="cls-1" width="85.04" height="58.58"/></clipPath></defs><title>logo-web</title><g id="Layer_2" data-name="Layer 2"><g id="Layer_1-2" data-name="Layer 1"><g class="cls-2"><path class="cls-3" d="M79.36,6.56a1.37,1.37,0,0,1-.67.9A6.83,6.83,0,0,1,73.38,7a1.5,1.5,0,0,1-.51-1c-.07-.43-.51-1,0-1.29.2-.11.67.38,1,.53.84.34,1.69.63,2.55.93.1,0,.32,0,.35-.08s.07-.36,0-.43a10.18,10.18,0,0,0-1.2-1c-.55-.36-1.16-.63-1.71-1a1.75,1.75,0,0,1-.78-1.84A1.63,1.63,0,0,1,74.62.52,14.92,14.92,0,0,1,76.39.36,8.92,8.92,0,0,0,78.16.3c.42-.06.6.08.65.48.1.76.22,1.53.28,2.3a.67.67,0,0,1-.25.55.78.78,0,0,1-.6-.16c-.4-.33-.74-.73-1.15-1.06a1.5,1.5,0,0,0-1.79-.12,3,3,0,0,0-.4.32c.13.12.23.29.38.34A9.84,9.84,0,0,1,78.56,5c.48.39,1,.86.8,1.55" transform="translate(0)"/><path class="cls-3" d="M83.66,2.25c-1,0-1,0-1.13,1s-.06,2.31-.1,3.47c0,.32,0,.77-.38.82a6,6,0,0,1-1.52-.1c-.06,0-.14-.37-.1-.53.13-.56.37-1.09.48-1.65.2-.91.33-1.83.49-2.75.06-.3,0-.43-.34-.52A.71.71,0,0,1,80.68.8a.5.5,0,0,1,.39-.16,8.15,8.15,0,0,0,3.2-.55c.61-.22.83,0,.76.61a8.75,8.75,0,0,0-.09.88c0,.5-.26.72-.76.67a4.51,4.51,0,0,0-.52,0" transform="translate(0)"/><path class="cls-3" d="M30.88,31.68A1,1,0,0,1,30.73,30c5.95-4.22,8-10.39,1.55-15.73C25,8.3,16.52,7.15,7.54,10a10.33,10.33,0,0,0-6,4.54c-1.39,2.32-.38,5,1.91,4.76,2.74-.35,2.82,1.69,2.86,3a13.1,13.1,0,0,1-1.16,6.28c-.84,1.63-2.74.71-4.38,1.44-2.45,1.08,1.43,6.72,2.33,7,3.07.91,3.54.36,4.5,1.92A13.24,13.24,0,0,1,9.22,45c0,1.26.11,3.3-2.64,3.16C4.27,48.05,3.46,50.84,5,53.06a10.31,10.31,0,0,0,6.28,4.11c9.15,2.16,17.53.42,24.37-6.07s3.25-15.68-4.77-19.42M20.32,19.31c1.61.23,3.12,1.3,4.63,2.28,2.09,1.37,1.88,2.75-.47,3.54-2.76.92-5.58,1.65-8.37,2.49-1.66.5-2.29,0-2-1.75a8.82,8.82,0,0,0-.09-2.17c-.45-6.24-.17-6.45,6.27-4.39m7.51,25c-1.44,1.08-2.88,2.26-4.46,2.6-6.28,2.5-6.58,2.31-6.56-3.94a9.3,9.3,0,0,0-.06-2.18c-.45-1.73.15-2.26,1.84-1.88,2.84.65,5.71,1.18,8.52,1.91,2.4.62,2.71,2,.72,3.49" transform="translate(0)"/><path class="cls-3" d="M68.48,47.43c.06-10.45.78-20.82,3.42-31,.77-3,0-4.53-3.15-6-5-2.3-20.43,4.27-23.84,7.57-.25,1.74-.54,3.47-.81,5.2-.63,4.07-1.55,4,2.36,4.78,2.46.47,4.91,1,7.35,1.58a3.79,3.79,0,0,0,4.36-2.3c1.69-4.13,6.38-9.47,6.38-7.53A118.43,118.43,0,0,1,62.4,35.36c-1.79,6.1-3.5,12.23-5.26,18.33-1.18,4.06-.5,5,3.67,4.88,7.55-.18,7.56-.18,7.66-7.85,0-1.1,0-2.2,0-3.29" transform="translate(0)"/></g></g></g></svg>