<svg xmlns="http://www.w3.org/2000/svg" viewBox="0 0 201.88 26.56"><defs><style>.cls-1{fill:#1a1a1a;}</style></defs><title>logo_black</title><g id="Layer_2" data-name="Layer 2"><g id="Layer_1-2" data-name="Layer 1"><path class="cls-1" d="M0,26.05,4.05.47H11.2L7.13,26.05Z"/><path class="cls-1" d="M10.65,26.05,14.74.47h6.6l2.3,13.74L26,.47h6L28,26.05H21.45L19,12.81,16.75,26.05Z"/><path class="cls-1" d="M31.38,26.05,35.45.47h5.41c3.41,0,5.93.8,7.54,2.39s2.43,4,2.43,7.37a23.28,23.28,0,0,1-1.2,7.44,14.16,14.16,0,0,1-3.09,5.51A8.84,8.84,0,0,1,43,25.4a21.58,21.58,0,0,1-6.24.65Zm8.2-6.3.15,0H40a2.54,2.54,0,0,0,1.2-.3,2.67,2.67,0,0,0,.95-.82,9.9,9.9,0,0,0,1.21-3.42,23.31,23.31,0,0,0,.58-5.15,4.34,4.34,0,0,0-.54-2.44,2.14,2.14,0,0,0-1.72-.87Z"/><path class="cls-1" d="M59.84,26.56A7.23,7.23,0,0,1,54,23.93a10.51,10.51,0,0,1-2.21-7A26.3,26.3,0,0,1,52.71,10a18.59,18.59,0,0,1,2.5-5.64,10.35,10.35,0,0,1,3.57-3.29A9.52,9.52,0,0,1,63.39,0a7.27,7.27,0,0,1,5.87,2.58,10.61,10.61,0,0,1,2.18,7,25.93,25.93,0,0,1-.92,6.9A18.54,18.54,0,0,1,68,22.18a10,10,0,0,1-3.53,3.29A9.67,9.67,0,0,1,59.84,26.56Zm-.86-9a4.43,4.43,0,0,0,.38,2.1,1.34,1.34,0,0,0,1.23.65,1.72,1.72,0,0,0,1.3-.59,5.33,5.33,0,0,0,1-1.91,23.73,23.73,0,0,0,.94-4.11,31.15,31.15,0,0,0,.36-4.58A4.6,4.6,0,0,0,63.81,7a1.22,1.22,0,0,0-1.14-.67,1.88,1.88,0,0,0-1.39.59,4.74,4.74,0,0,0-1,1.88,27.31,27.31,0,0,0-1,4.21A29.92,29.92,0,0,0,59,17.52Z"/><path class="cls-1" d="M80.28,7.08l-3.61,19H70.52L76.41.47h8.36L84.84,14,89.18.47h8.33L95.32,26.05H89.15L91.48,7.11,85.42,26.05H80.58Z"/><path class="cls-1" d="M97.58,26.05,101.64.47h6.13c3.43,0,5.9.57,7.42,1.69s2.27,3,2.27,5.48q0,4.79-2.7,7.35T107,17.56l-.48,0-.48,0-1.33,8.53Zm10.3-19.92L107,11.79a1.35,1.35,0,0,0,.29.05h.39a2.81,2.81,0,0,0,2.29-.91,4.24,4.24,0,0,0,.76-2.75,1.86,1.86,0,0,0-.63-1.53,2.88,2.88,0,0,0-1.84-.52Z"/><path class="cls-1" d="M127.15,26.05H120L123,7h-4.25l1-6.49h15.68l-1,6.49h-4.24Z"/><path class="cls-1" d="M130.54,26.05,140.15.47h8.43l1.81,25.58h-7.22l0-3.76H139l-1.12,3.76Zm10-8.93h2.85l.09-9.48Z"/><path class="cls-1" d="M151.21,26.05,155.28.47h6.6q4.8,0,6.91,1.39a5,5,0,0,1,2.1,4.5,6,6,0,0,1-1.37,4.08,7.37,7.37,0,0,1-4.1,2.16,5.69,5.69,0,0,1,3.11,2,5.44,5.44,0,0,1,1.1,3.43,7.94,7.94,0,0,1-.76,3.41,7.36,7.36,0,0,1-2.12,2.69,7.71,7.71,0,0,1-3,1.49,18.56,18.56,0,0,1-4.56.45Zm7.9-5.34.37.05a3.48,3.48,0,0,0,.49,0,2.3,2.3,0,0,0,1.92-.84,3.85,3.85,0,0,0,.66-2.42,2.47,2.47,0,0,0-.6-1.81,2.45,2.45,0,0,0-1.8-.61h-.21Zm1.58-10.37.3,0h.49a2.58,2.58,0,0,0,1.88-.67,2.44,2.44,0,0,0,.69-1.83,1.87,1.87,0,0,0-.55-1.48,2.31,2.31,0,0,0-1.62-.5,1.15,1.15,0,0,0-.24,0h-.23Z"/><path class="cls-1" d="M170.69,26.05,174.76.47h7.17l-3.05,19.24h5.24l-1,6.34Z"/><path class="cls-1" d="M185.15,26.05,189.21.47h12.67l-1,6.21h-5.52l-.54,3.25h5l-.93,6h-5l-.58,3.52h5.54l-1.05,6.6Z"/></g></g></svg>